<svg version="1.1" baseProfile="full" width="118" height="94" xmlns="http://www.w3.org/2000/svg">
	<rect x="12" y="0" width="10" height="10" fill="#eeeef9"></rect>
	<rect x="24" y="0" width="10" height="10" fill="#eef9ee"></rect>
	<rect x="48" y="0" width="10" height="10" fill="#eef9ee"></rect>
	<rect x="96" y="0" width="10" height="10" fill="#eeffee"></rect>
	<rect x="0" y="12" width="10" height="10" fill="#eeeefc"></rect>
	<rect x="12" y="12" width="10" height="10" fill="#eefaee"></rect>
	<rect x="24" y="12" width="10" height="10" fill="#eeeeff"></rect>
	<rect x="60" y="12" width="10" height="10" fill="#eefbee"></rect>
	<rect x="12" y="24" width="10" height="10" fill="#eefcee"></rect>
	<rect x="36" y="24" width="10" height="10" fill="#eefbee"></rect>
	<rect x="48" y="24" width="10" height="10" fill="#eefdee"></rect>
	<rect x="72" y="24" width="10" height="10" fill="#eefeee"></rect>
	<rect x="0" y="36" width="10" height="10" fill="#eefeee"></rect>
	<rect x="12" y="36" width="10" height="10" fill="#eefdee"></rect>
	<rect x="36" y="36" width="10" height="10" fill="#eefaee"></rect>
	<rect x="48" y="36" width="10" height="10" fill="#eef9ee"></rect>
	<rect x="60" y="36" width="10" height="10" fill="#eeeefb"></rect>
	<rect x="108" y="36" width="10" height="10" fill="#eeffee"></rect>
	<rect x="12" y="48" width="10" height="10" fill="#eeffee"></rect>
	<rect x="24" y="48" width="10" height="10" fill="#eefeee"></rect>
	<rect x="36" y="48" width="10" height="10" fill="#eeffee"></rect>
	<rect x="96" y="48" width="10" height="10" fill="#eeeefe"></rect>
	<rect x="12" y="60" width="10" height="10" fill="#eefbee"></rect>
	<rect x="36" y="60" width="10" height="10" fill="#eefdee"></rect>
	<rect x="60" y="60" width="10" height="10" fill="#eef8ee"></rect>
	<rect x="72" y="60" width="10" height="10" fill="#eeffee"></rect>
	<rect x="96" y="60" width="10" height="10" fill="#eefeee"></rect>
	<rect x="0" y="72" width="10" height="10" fill="#eef9ee"></rect>
	<rect x="12" y="72" width="10" height="10" fill="#eef9ee"></rect>
	<rect x="24" y="72" width="10" height="10" fill="#eef8ee"></rect>
	<rect x="36" y="72" width="10" height="10" fill="#eef9ee"></rect>
	<rect x="60" y="72" width="10" height="10" fill="#eefeee"></rect>
	<rect x="72" y="72" width="10" height="10" fill="#eefbee"></rect>
	<rect x="108" y="72" width="10" height="10" fill="#eefaee"></rect>
	<rect x="0" y="84" width="10" height="10" fill="#eefaee"></rect>
	<rect x="12" y="84" width="10" height="10" fill="#eef8ee"></rect>
	<rect x="24" y="84" width="10" height="10" fill="#eeeefe"></rect>
	<rect x="60" y="84" width="10" height="10" fill="#eefeee"></rect>
</svg>
